solid patch0
 facet normal 0 0 -1
  outer loop
   vertex 31.85 0.54 0
   vertex 32.4 0.47 0
   vertex 33.45 0 0
  endloop
 endfacet
 facet normal 0 0 -1
  outer loop
   vertex 28.28 0.85 0
   vertex 31.85 0.54 0
   vertex 33.45 0 0
  endloop
 endfacet
 facet normal 0 0 -1
  outer loop
   vertex 33.45 0 0
   vertex 27.04 0.9 0
   vertex 28.28 0.85 0
  endloop
 endfacet
 facet normal 0 0 -1
  outer loop
   vertex 24.37 0.99 0
   vertex 27.04 0.9 0
   vertex 33.45 0 0
  endloop
 endfacet
 facet normal 0 0 -1
  outer loop
   vertex 33.45 0 0
   vertex 0 0 0
   vertex 24.37 0.99 0
  endloop
 endfacet
 facet normal 0 -0 -1
  outer loop
   vertex 23.22 1.25 0
   vertex 24.37 0.99 0
   vertex 0 0 0
  endloop
 endfacet
 facet normal 0 0 -1
  outer loop
   vertex 0 0 0
   vertex 22.46 1.34 0
   vertex 23.22 1.25 0
  endloop
 endfacet
 facet normal 0 0 -1
  outer loop
   vertex 0 0 0
   vertex 21.01 1.89 0
   vertex 22.46 1.34 0
  endloop
 endfacet
 facet normal 0 -0 -1
  outer loop
   vertex 18.65 2.95 0
   vertex 21.01 1.89 0
   vertex 0 0 0
  endloop
 endfacet
 facet normal 0 0 -1
  outer loop
   vertex 0 0 0
   vertex 17.06 3.62 0
   vertex 18.65 2.95 0
  endloop
 endfacet
 facet normal 0 -0 -1
  outer loop
   vertex 14.77 4.54 0
   vertex 17.06 3.62 0
   vertex 0 0 0
  endloop
 endfacet
 facet normal 0 -0 -1
  outer loop
   vertex 12.26 5.47 0
   vertex 14.77 4.54 0
   vertex 0 0 0
  endloop
 endfacet
 facet normal 0 -0 -1
  outer loop
   vertex 9.33 6.46 0
   vertex 12.26 5.47 0
   vertex 0 0 0
  endloop
 endfacet
 facet normal 0 -0 -1
  outer loop
   vertex 6.38 7.34 0
   vertex 9.33 6.46 0
   vertex 0 0 0
  endloop
 endfacet
 facet normal 0 -0 -1
  outer loop
   vertex 4.81 7.67 0
   vertex 6.38 7.34 0
   vertex 0 0 0
  endloop
 endfacet
 facet normal 0 0 -1
  outer loop
   vertex 0 0 0
   vertex 2.49 7.88 0
   vertex 4.81 7.67 0
  endloop
 endfacet
 facet normal 0 0 -1
  outer loop
   vertex 0 0 0
   vertex 0 7.88 0
   vertex 2.49 7.88 0
  endloop
 endfacet
 facet normal 0 0 1
  outer loop
   vertex 2.49 7.88 1
   vertex 0 7.88 1
   vertex 0 0 1
  endloop
 endfacet
 facet normal 0 0 1
  outer loop
   vertex 4.81 7.67 1
   vertex 2.49 7.88 1
   vertex 0 0 1
  endloop
 endfacet
 facet normal 0 0 1
  outer loop
   vertex 0 0 1
   vertex 6.38 7.34 1
   vertex 4.81 7.67 1
  endloop
 endfacet
 facet normal 0 0 1
  outer loop
   vertex 0 0 1
   vertex 9.33 6.46 1
   vertex 6.38 7.34 1
  endloop
 endfacet
 facet normal 0 0 1
  outer loop
   vertex 0 0 1
   vertex 12.26 5.47 1
   vertex 9.33 6.46 1
  endloop
 endfacet
 facet normal 0 0 1
  outer loop
   vertex 0 0 1
   vertex 14.77 4.54 1
   vertex 12.26 5.47 1
  endloop
 endfacet
 facet normal 0 0 1
  outer loop
   vertex 0 0 1
   vertex 17.06 3.62 1
   vertex 14.77 4.54 1
  endloop
 endfacet
 facet normal 0 0 1
  outer loop
   vertex 18.65 2.95 1
   vertex 17.06 3.62 1
   vertex 0 0 1
  endloop
 endfacet
 facet normal 0 0 1
  outer loop
   vertex 0 0 1
   vertex 21.01 1.89 1
   vertex 18.65 2.95 1
  endloop
 endfacet
 facet normal 0 0 1
  outer loop
   vertex 22.46 1.34 1
   vertex 21.01 1.89 1
   vertex 0 0 1
  endloop
 endfacet
 facet normal 0 0 1
  outer loop
   vertex 23.22 1.25 1
   vertex 22.46 1.34 1
   vertex 0 0 1
  endloop
 endfacet
 facet normal 0 0 1
  outer loop
   vertex 0 0 1
   vertex 24.37 0.99 1
   vertex 23.22 1.25 1
  endloop
 endfacet
 facet normal 0 0 1
  outer loop
   vertex 24.37 0.99 1
   vertex 0 0 1
   vertex 33.45 0 1
  endloop
 endfacet
 facet normal 0 0 1
  outer loop
   vertex 33.45 0 1
   vertex 27.04 0.9 1
   vertex 24.37 0.99 1
  endloop
 endfacet
 facet normal 0 0 1
  outer loop
   vertex 28.28 0.85 1
   vertex 27.04 0.9 1
   vertex 33.45 0 1
  endloop
 endfacet
 facet normal 0 0 1
  outer loop
   vertex 33.45 0 1
   vertex 31.85 0.54 1
   vertex 28.28 0.85 1
  endloop
 endfacet
 facet normal 0 0 1
  outer loop
   vertex 33.45 0 1
   vertex 32.4 0.47 1
   vertex 31.85 0.54 1
  endloop
 endfacet
 facet normal 0 -1 0
  outer loop
   vertex 0 0 0
   vertex 33.45 0 0
   vertex 33.45 0 1
  endloop
 endfacet
 facet normal -0 -1 0
  outer loop
   vertex 33.45 0 1
   vertex 0 0 1
   vertex 0 0 0
  endloop
 endfacet
 facet normal 0.408557 0.912733 0
  outer loop
   vertex 33.45 0 0
   vertex 32.4 0.47 0
   vertex 32.4 0.47 1
  endloop
 endfacet
 facet normal 0.408557 0.912733 0
  outer loop
   vertex 32.4 0.47 1
   vertex 33.45 0 1
   vertex 33.45 0 0
  endloop
 endfacet
 facet normal 0.126254 0.991998 0
  outer loop
   vertex 32.4 0.47 0
   vertex 31.85 0.54 0
   vertex 31.85 0.54 1
  endloop
 endfacet
 facet normal 0.126254 0.991998 0
  outer loop
   vertex 31.85 0.54 1
   vertex 32.4 0.47 1
   vertex 32.4 0.47 0
  endloop
 endfacet
 facet normal 0.0865092 0.996251 0
  outer loop
   vertex 31.85 0.54 0
   vertex 28.28 0.85 0
   vertex 28.28 0.85 1
  endloop
 endfacet
 facet normal 0.0865092 0.996251 0
  outer loop
   vertex 28.28 0.85 1
   vertex 31.85 0.54 1
   vertex 31.85 0.54 0
  endloop
 endfacet
 facet normal 0.0402898 0.999188 0
  outer loop
   vertex 28.28 0.85 0
   vertex 27.04 0.9 0
   vertex 27.04 0.9 1
  endloop
 endfacet
 facet normal 0.0402898 0.999188 0
  outer loop
   vertex 27.04 0.9 1
   vertex 28.28 0.85 1
   vertex 28.28 0.85 0
  endloop
 endfacet
 facet normal 0.0336887 0.999432 0
  outer loop
   vertex 27.04 0.9 0
   vertex 24.37 0.99 0
   vertex 24.37 0.99 1
  endloop
 endfacet
 facet normal 0.0336887 0.999432 0
  outer loop
   vertex 24.37 0.99 1
   vertex 27.04 0.9 1
   vertex 27.04 0.9 0
  endloop
 endfacet
 facet normal 0.220521 0.975382 0
  outer loop
   vertex 24.37 0.99 0
   vertex 23.22 1.25 0
   vertex 23.22 1.25 1
  endloop
 endfacet
 facet normal 0.220521 0.975382 0
  outer loop
   vertex 23.22 1.25 1
   vertex 24.37 0.99 1
   vertex 24.37 0.99 0
  endloop
 endfacet
 facet normal 0.117599 0.993061 0
  outer loop
   vertex 23.22 1.25 0
   vertex 22.46 1.34 0
   vertex 22.46 1.34 1
  endloop
 endfacet
 facet normal 0.117599 0.993061 0
  outer loop
   vertex 22.46 1.34 1
   vertex 23.22 1.25 1
   vertex 23.22 1.25 0
  endloop
 endfacet
 facet normal 0.354654 0.934998 0
  outer loop
   vertex 22.46 1.34 0
   vertex 21.01 1.89 0
   vertex 21.01 1.89 1
  endloop
 endfacet
 facet normal 0.354654 0.934998 0
  outer loop
   vertex 21.01 1.89 1
   vertex 22.46 1.34 1
   vertex 22.46 1.34 0
  endloop
 endfacet
 facet normal 0.409722 0.912211 0
  outer loop
   vertex 21.01 1.89 0
   vertex 18.65 2.95 0
   vertex 18.65 2.95 1
  endloop
 endfacet
 facet normal 0.409722 0.912211 0
  outer loop
   vertex 18.65 2.95 1
   vertex 21.01 1.89 1
   vertex 21.01 1.89 0
  endloop
 endfacet
 facet normal 0.388316 0.921526 0
  outer loop
   vertex 18.65 2.95 0
   vertex 17.06 3.62 0
   vertex 17.06 3.62 1
  endloop
 endfacet
 facet normal 0.388316 0.921526 0
  outer loop
   vertex 17.06 3.62 1
   vertex 18.65 2.95 1
   vertex 18.65 2.95 0
  endloop
 endfacet
 facet normal 0.372788 0.927917 0
  outer loop
   vertex 17.06 3.62 0
   vertex 14.77 4.54 0
   vertex 14.77 4.54 1
  endloop
 endfacet
 facet normal 0.372788 0.927917 0
  outer loop
   vertex 14.77 4.54 1
   vertex 17.06 3.62 1
   vertex 17.06 3.62 0
  endloop
 endfacet
 facet normal 0.347436 0.937704 0
  outer loop
   vertex 14.77 4.54 0
   vertex 12.26 5.47 0
   vertex 12.26 5.47 1
  endloop
 endfacet
 facet normal 0.347436 0.937704 0
  outer loop
   vertex 12.26 5.47 1
   vertex 14.77 4.54 1
   vertex 14.77 4.54 0
  endloop
 endfacet
 facet normal 0.320105 0.947382 0
  outer loop
   vertex 12.26 5.47 0
   vertex 9.33 6.46 0
   vertex 9.33 6.46 1
  endloop
 endfacet
 facet normal 0.320105 0.947382 0
  outer loop
   vertex 9.33 6.46 1
   vertex 12.26 5.47 1
   vertex 12.26 5.47 0
  endloop
 endfacet
 facet normal 0.285857 0.958272 0
  outer loop
   vertex 9.33 6.46 0
   vertex 6.38 7.34 0
   vertex 6.38 7.34 1
  endloop
 endfacet
 facet normal 0.285857 0.958272 0
  outer loop
   vertex 6.38 7.34 1
   vertex 9.33 6.46 1
   vertex 9.33 6.46 0
  endloop
 endfacet
 facet normal 0.205696 0.978616 0
  outer loop
   vertex 6.38 7.34 0
   vertex 4.81 7.67 0
   vertex 4.81 7.67 1
  endloop
 endfacet
 facet normal 0.205696 0.978616 0
  outer loop
   vertex 4.81 7.67 1
   vertex 6.38 7.34 1
   vertex 6.38 7.34 0
  endloop
 endfacet
 facet normal 0.0901487 0.995928 0
  outer loop
   vertex 4.81 7.67 0
   vertex 2.49 7.88 0
   vertex 2.49 7.88 1
  endloop
 endfacet
 facet normal 0.0901487 0.995928 0
  outer loop
   vertex 2.49 7.88 1
   vertex 4.81 7.67 1
   vertex 4.81 7.67 0
  endloop
 endfacet
 facet normal 0 1 0
  outer loop
   vertex 2.49 7.88 0
   vertex 0 7.88 0
   vertex 0 7.88 1
  endloop
 endfacet
 facet normal -0 1 0
  outer loop
   vertex 0 7.88 1
   vertex 2.49 7.88 1
   vertex 2.49 7.88 0
  endloop
 endfacet
 facet normal -1 0 0
  outer loop
   vertex 0 7.88 0
   vertex 0 0 0
   vertex 0 0 1
  endloop
 endfacet
 facet normal -1 0 0
  outer loop
   vertex 0 0 1
   vertex 0 7.88 1
   vertex 0 7.88 0
  endloop
 endfacet
endsolid patch0
