solid patch0
 facet normal 0 0 -1
  outer loop
   vertex 20.52 0.03 0
   vertex 21.52 0.09 0
   vertex 22.52 0 0
  endloop
 endfacet
 facet normal 0 0 -1
  outer loop
   vertex 22.52 0 0
   vertex 0 0 0
   vertex 20.52 0.03 0
  endloop
 endfacet
 facet normal 0 0 -1
  outer loop
   vertex 0 0 0
   vertex 19.52 0.21 0
   vertex 20.52 0.03 0
  endloop
 endfacet
 facet normal 0 -0 -1
  outer loop
   vertex 18.52 0.41 0
   vertex 19.52 0.21 0
   vertex 0 0 0
  endloop
 endfacet
 facet normal 0 0 -1
  outer loop
   vertex 0 0 0
   vertex 17.52 0.64 0
   vertex 18.52 0.41 0
  endloop
 endfacet
 facet normal 0 -0 -1
  outer loop
   vertex 16.51 0.88 0
   vertex 17.52 0.64 0
   vertex 0 0 0
  endloop
 endfacet
 facet normal 0 -0 -1
  outer loop
   vertex 15.51 1.13 0
   vertex 16.51 0.88 0
   vertex 0 0 0
  endloop
 endfacet
 facet normal 0 -0 -1
  outer loop
   vertex 14.51 1.46 0
   vertex 15.51 1.13 0
   vertex 0 0 0
  endloop
 endfacet
 facet normal 0 0 -1
  outer loop
   vertex 0 0 0
   vertex 13.51 1.72 0
   vertex 14.51 1.46 0
  endloop
 endfacet
 facet normal 0 0 -1
  outer loop
   vertex 0 0 0
   vertex 12.51 2.08 0
   vertex 13.51 1.72 0
  endloop
 endfacet
 facet normal 0 -0 -1
  outer loop
   vertex 11.51 2.46 0
   vertex 12.51 2.08 0
   vertex 0 0 0
  endloop
 endfacet
 facet normal 0 0 -1
  outer loop
   vertex 0 0 0
   vertex 10.51 2.82 0
   vertex 11.51 2.46 0
  endloop
 endfacet
 facet normal 0 -0 -1
  outer loop
   vertex 9.51 3.17 0
   vertex 10.51 2.82 0
   vertex 0 0 0
  endloop
 endfacet
 facet normal 0 0 -1
  outer loop
   vertex 0 0 0
   vertex 8.51 3.5 0
   vertex 9.51 3.17 0
  endloop
 endfacet
 facet normal 0 0 -1
  outer loop
   vertex 0 0 0
   vertex 7.51 3.85 0
   vertex 8.51 3.5 0
  endloop
 endfacet
 facet normal 0 -0 -1
  outer loop
   vertex 6.51 4.2 0
   vertex 7.51 3.85 0
   vertex 0 0 0
  endloop
 endfacet
 facet normal 0 0 -1
  outer loop
   vertex 0 0 0
   vertex 5.51 4.52 0
   vertex 6.51 4.2 0
  endloop
 endfacet
 facet normal 0 -0 -1
  outer loop
   vertex 4.51 4.85 0
   vertex 5.51 4.52 0
   vertex 0 0 0
  endloop
 endfacet
 facet normal 0 0 -1
  outer loop
   vertex 0 0 0
   vertex 3.37 5.21 0
   vertex 4.51 4.85 0
  endloop
 endfacet
 facet normal 0 -0 -1
  outer loop
   vertex 2.22 5.58 0
   vertex 3.37 5.21 0
   vertex 0 0 0
  endloop
 endfacet
 facet normal 0 0 -1
  outer loop
   vertex 0 0 0
   vertex 1.01 5.64 0
   vertex 2.22 5.58 0
  endloop
 endfacet
 facet normal 0 0 -1
  outer loop
   vertex 0 0 0
   vertex 0 5.69 0
   vertex 1.01 5.64 0
  endloop
 endfacet
 facet normal 0 0 1
  outer loop
   vertex 1.01 5.64 1
   vertex 0 5.69 1
   vertex 0 0 1
  endloop
 endfacet
 facet normal 0 0 1
  outer loop
   vertex 2.22 5.58 1
   vertex 1.01 5.64 1
   vertex 0 0 1
  endloop
 endfacet
 facet normal 0 0 1
  outer loop
   vertex 0 0 1
   vertex 3.37 5.21 1
   vertex 2.22 5.58 1
  endloop
 endfacet
 facet normal 0 0 1
  outer loop
   vertex 4.51 4.85 1
   vertex 3.37 5.21 1
   vertex 0 0 1
  endloop
 endfacet
 facet normal 0 0 1
  outer loop
   vertex 0 0 1
   vertex 5.51 4.52 1
   vertex 4.51 4.85 1
  endloop
 endfacet
 facet normal 0 0 1
  outer loop
   vertex 6.51 4.2 1
   vertex 5.51 4.52 1
   vertex 0 0 1
  endloop
 endfacet
 facet normal 0 0 1
  outer loop
   vertex 0 0 1
   vertex 7.51 3.85 1
   vertex 6.51 4.2 1
  endloop
 endfacet
 facet normal 0 0 1
  outer loop
   vertex 8.51 3.5 1
   vertex 7.51 3.85 1
   vertex 0 0 1
  endloop
 endfacet
 facet normal 0 0 1
  outer loop
   vertex 9.51 3.17 1
   vertex 8.51 3.5 1
   vertex 0 0 1
  endloop
 endfacet
 facet normal 0 0 1
  outer loop
   vertex 0 0 1
   vertex 10.51 2.82 1
   vertex 9.51 3.17 1
  endloop
 endfacet
 facet normal 0 0 1
  outer loop
   vertex 11.51 2.46 1
   vertex 10.51 2.82 1
   vertex 0 0 1
  endloop
 endfacet
 facet normal 0 0 1
  outer loop
   vertex 0 0 1
   vertex 12.51 2.08 1
   vertex 11.51 2.46 1
  endloop
 endfacet
 facet normal 0 0 1
  outer loop
   vertex 13.51 1.72 1
   vertex 12.51 2.08 1
   vertex 0 0 1
  endloop
 endfacet
 facet normal 0 0 1
  outer loop
   vertex 14.51 1.46 1
   vertex 13.51 1.72 1
   vertex 0 0 1
  endloop
 endfacet
 facet normal 0 0 1
  outer loop
   vertex 0 0 1
   vertex 15.51 1.13 1
   vertex 14.51 1.46 1
  endloop
 endfacet
 facet normal 0 0 1
  outer loop
   vertex 0 0 1
   vertex 16.51 0.88 1
   vertex 15.51 1.13 1
  endloop
 endfacet
 facet normal 0 0 1
  outer loop
   vertex 0 0 1
   vertex 17.52 0.64 1
   vertex 16.51 0.88 1
  endloop
 endfacet
 facet normal 0 0 1
  outer loop
   vertex 18.52 0.41 1
   vertex 17.52 0.64 1
   vertex 0 0 1
  endloop
 endfacet
 facet normal 0 0 1
  outer loop
   vertex 0 0 1
   vertex 19.52 0.21 1
   vertex 18.52 0.41 1
  endloop
 endfacet
 facet normal 0 0 1
  outer loop
   vertex 20.52 0.03 1
   vertex 19.52 0.21 1
   vertex 0 0 1
  endloop
 endfacet
 facet normal 0 0 1
  outer loop
   vertex 20.52 0.03 1
   vertex 0 0 1
   vertex 22.52 0 1
  endloop
 endfacet
 facet normal 0 0 1
  outer loop
   vertex 22.52 0 1
   vertex 21.52 0.09 1
   vertex 20.52 0.03 1
  endloop
 endfacet
 facet normal 0 -1 0
  outer loop
   vertex 0 0 0
   vertex 22.52 0 0
   vertex 22.52 0 1
  endloop
 endfacet
 facet normal -0 -1 0
  outer loop
   vertex 22.52 0 1
   vertex 0 0 1
   vertex 0 0 0
  endloop
 endfacet
 facet normal 0.0896377 0.995974 0
  outer loop
   vertex 22.52 0 0
   vertex 21.52 0.09 0
   vertex 21.52 0.09 1
  endloop
 endfacet
 facet normal 0.0896377 0.995974 0
  outer loop
   vertex 21.52 0.09 1
   vertex 22.52 0 1
   vertex 22.52 0 0
  endloop
 endfacet
 facet normal -0.0598923 0.998205 0
  outer loop
   vertex 21.52 0.09 0
   vertex 20.52 0.03 0
   vertex 20.52 0.03 1
  endloop
 endfacet
 facet normal -0.0598923 0.998205 0
  outer loop
   vertex 20.52 0.03 1
   vertex 21.52 0.09 1
   vertex 21.52 0.09 0
  endloop
 endfacet
 facet normal 0.177153 0.984183 0
  outer loop
   vertex 20.52 0.03 0
   vertex 19.52 0.21 0
   vertex 19.52 0.21 1
  endloop
 endfacet
 facet normal 0.177153 0.984183 0
  outer loop
   vertex 19.52 0.21 1
   vertex 20.52 0.03 1
   vertex 20.52 0.03 0
  endloop
 endfacet
 facet normal 0.196116 0.980581 0
  outer loop
   vertex 19.52 0.21 0
   vertex 18.52 0.41 0
   vertex 18.52 0.41 1
  endloop
 endfacet
 facet normal 0.196116 0.980581 0
  outer loop
   vertex 18.52 0.41 1
   vertex 19.52 0.21 1
   vertex 19.52 0.21 0
  endloop
 endfacet
 facet normal 0.224148 0.974555 0
  outer loop
   vertex 18.52 0.41 0
   vertex 17.52 0.64 0
   vertex 17.52 0.64 1
  endloop
 endfacet
 facet normal 0.224148 0.974555 0
  outer loop
   vertex 17.52 0.64 1
   vertex 18.52 0.41 1
   vertex 18.52 0.41 0
  endloop
 endfacet
 facet normal 0.231186 0.972909 0
  outer loop
   vertex 17.52 0.64 0
   vertex 16.51 0.88 0
   vertex 16.51 0.88 1
  endloop
 endfacet
 facet normal 0.231186 0.972909 0
  outer loop
   vertex 16.51 0.88 1
   vertex 17.52 0.64 1
   vertex 17.52 0.64 0
  endloop
 endfacet
 facet normal 0.242536 0.970143 0
  outer loop
   vertex 16.51 0.88 0
   vertex 15.51 1.13 0
   vertex 15.51 1.13 1
  endloop
 endfacet
 facet normal 0.242536 0.970143 0
  outer loop
   vertex 15.51 1.13 1
   vertex 16.51 0.88 1
   vertex 16.51 0.88 0
  endloop
 endfacet
 facet normal 0.313377 0.949629 0
  outer loop
   vertex 15.51 1.13 0
   vertex 14.51 1.46 0
   vertex 14.51 1.46 1
  endloop
 endfacet
 facet normal 0.313377 0.949629 0
  outer loop
   vertex 14.51 1.46 1
   vertex 15.51 1.13 1
   vertex 15.51 1.13 0
  endloop
 endfacet
 facet normal 0.251634 0.967823 0
  outer loop
   vertex 14.51 1.46 0
   vertex 13.51 1.72 0
   vertex 13.51 1.72 1
  endloop
 endfacet
 facet normal 0.251634 0.967823 0
  outer loop
   vertex 13.51 1.72 1
   vertex 14.51 1.46 1
   vertex 14.51 1.46 0
  endloop
 endfacet
 facet normal 0.338719 0.940887 0
  outer loop
   vertex 13.51 1.72 0
   vertex 12.51 2.08 0
   vertex 12.51 2.08 1
  endloop
 endfacet
 facet normal 0.338719 0.940887 0
  outer loop
   vertex 12.51 2.08 1
   vertex 13.51 1.72 1
   vertex 13.51 1.72 0
  endloop
 endfacet
 facet normal 0.355218 0.934784 0
  outer loop
   vertex 12.51 2.08 0
   vertex 11.51 2.46 0
   vertex 11.51 2.46 1
  endloop
 endfacet
 facet normal 0.355218 0.934784 0
  outer loop
   vertex 11.51 2.46 1
   vertex 12.51 2.08 1
   vertex 12.51 2.08 0
  endloop
 endfacet
 facet normal 0.338719 0.940887 0
  outer loop
   vertex 11.51 2.46 0
   vertex 10.51 2.82 0
   vertex 10.51 2.82 1
  endloop
 endfacet
 facet normal 0.338719 0.940887 0
  outer loop
   vertex 10.51 2.82 1
   vertex 11.51 2.46 1
   vertex 11.51 2.46 0
  endloop
 endfacet
 facet normal 0.33035 0.943858 0
  outer loop
   vertex 10.51 2.82 0
   vertex 9.51 3.17 0
   vertex 9.51 3.17 1
  endloop
 endfacet
 facet normal 0.33035 0.943858 0
  outer loop
   vertex 9.51 3.17 1
   vertex 10.51 2.82 1
   vertex 10.51 2.82 0
  endloop
 endfacet
 facet normal 0.313377 0.949629 0
  outer loop
   vertex 9.51 3.17 0
   vertex 8.51 3.5 0
   vertex 8.51 3.5 1
  endloop
 endfacet
 facet normal 0.313377 0.949629 0
  outer loop
   vertex 8.51 3.5 1
   vertex 9.51 3.17 1
   vertex 9.51 3.17 0
  endloop
 endfacet
 facet normal 0.33035 0.943858 0
  outer loop
   vertex 8.51 3.5 0
   vertex 7.51 3.85 0
   vertex 7.51 3.85 1
  endloop
 endfacet
 facet normal 0.33035 0.943858 0
  outer loop
   vertex 7.51 3.85 1
   vertex 8.51 3.5 1
   vertex 8.51 3.5 0
  endloop
 endfacet
 facet normal 0.33035 0.943858 0
  outer loop
   vertex 7.51 3.85 0
   vertex 6.51 4.2 0
   vertex 6.51 4.2 1
  endloop
 endfacet
 facet normal 0.33035 0.943858 0
  outer loop
   vertex 6.51 4.2 1
   vertex 7.51 3.85 1
   vertex 7.51 3.85 0
  endloop
 endfacet
 facet normal 0.304776 0.952424 0
  outer loop
   vertex 6.51 4.2 0
   vertex 5.51 4.52 0
   vertex 5.51 4.52 1
  endloop
 endfacet
 facet normal 0.304776 0.952424 0
  outer loop
   vertex 5.51 4.52 1
   vertex 6.51 4.2 1
   vertex 6.51 4.2 0
  endloop
 endfacet
 facet normal 0.313377 0.949629 0
  outer loop
   vertex 5.51 4.52 0
   vertex 4.51 4.85 0
   vertex 4.51 4.85 1
  endloop
 endfacet
 facet normal 0.313377 0.949629 0
  outer loop
   vertex 4.51 4.85 1
   vertex 5.51 4.52 1
   vertex 5.51 4.52 0
  endloop
 endfacet
 facet normal 0.301131 0.953583 0
  outer loop
   vertex 4.51 4.85 0
   vertex 3.37 5.21 0
   vertex 3.37 5.21 1
  endloop
 endfacet
 facet normal 0.301131 0.953583 0
  outer loop
   vertex 3.37 5.21 1
   vertex 4.51 4.85 1
   vertex 4.51 4.85 0
  endloop
 endfacet
 facet normal 0.306277 0.951942 0
  outer loop
   vertex 3.37 5.21 0
   vertex 2.22 5.58 0
   vertex 2.22 5.58 1
  endloop
 endfacet
 facet normal 0.306277 0.951942 0
  outer loop
   vertex 2.22 5.58 1
   vertex 3.37 5.21 1
   vertex 3.37 5.21 0
  endloop
 endfacet
 facet normal 0.0495259 0.998773 0
  outer loop
   vertex 2.22 5.58 0
   vertex 1.01 5.64 0
   vertex 1.01 5.64 1
  endloop
 endfacet
 facet normal 0.0495259 0.998773 0
  outer loop
   vertex 1.01 5.64 1
   vertex 2.22 5.58 1
   vertex 2.22 5.58 0
  endloop
 endfacet
 facet normal 0.0494444 0.998777 0
  outer loop
   vertex 1.01 5.64 0
   vertex 0 5.69 0
   vertex 0 5.69 1
  endloop
 endfacet
 facet normal 0.0494444 0.998777 0
  outer loop
   vertex 0 5.69 1
   vertex 1.01 5.64 1
   vertex 1.01 5.64 0
  endloop
 endfacet
 facet normal -1 0 0
  outer loop
   vertex 0 5.69 0
   vertex 0 0 0
   vertex 0 0 1
  endloop
 endfacet
 facet normal -1 0 0
  outer loop
   vertex 0 0 1
   vertex 0 5.69 1
   vertex 0 5.69 0
  endloop
 endfacet
endsolid patch0
